HIERARCHY
ROOT Hips
{
    OFFSET   0.000000   0.000000   0.000000
    CHANNELS 6 Xposition Yposition Zposition Zrotation Xrotation Yrotation
    JOINT Chest
    {
        OFFSET   0.000000   8.007240   0.000000
        CHANNELS 3 Zrotation Xrotation Yrotation
        JOINT Chest2
        {
            OFFSET   0.000000  22.077100   0.000000
            CHANNELS 3 Zrotation Xrotation Yrotation
            JOINT Neck
            {
                OFFSET   0.000000  23.254800   0.000000
                CHANNELS 3 Zrotation Xrotation Yrotation
                JOINT Head
                {
                    OFFSET   0.000000  14.370000   1.956600
                    CHANNELS 3 Zrotation Xrotation Yrotation
                    End Site
                    {
                        OFFSET   0.000000  19.566000   0.000000
                    }
                }
            }
            JOINT LeftCollar
            {
                OFFSET   3.911900  19.017000  -0.467064
                CHANNELS 3 Zrotation Xrotation Yrotation
                JOINT LeftShoulder
                {
                    OFFSET  10.383700   0.000000   0.000000
                    CHANNELS 3 Zrotation Xrotation Yrotation
                    JOINT LeftElbow
                    {
                        OFFSET  26.662100   0.001476   0.000517
                        CHANNELS 3 Zrotation Xrotation Yrotation
                        JOINT LeftWrist
                        {
                            OFFSET  28.869000  -0.000025  -0.000106
                            CHANNELS 3 Zrotation Xrotation Yrotation
                            JOINT LeftFinger0
                            {
                                OFFSET   2.044660  -2.323460   3.252850
                                CHANNELS 3 Zrotation Xrotation Yrotation
                                JOINT LeftFinger01
                                {
                                    OFFSET   3.088130   0.000000   0.000000
                                    CHANNELS 3 Zrotation Xrotation Yrotation
                                    JOINT LeftFinger02
                                    {
                                        OFFSET   2.639460   0.000000   0.000000
                                        CHANNELS 3 Zrotation Xrotation Yrotation
                                        End Site
                                        {
                                            OFFSET   2.582190   0.000000   0.000000
                                        }
                                    }
                                }
                            }
                            JOINT LeftFinger1
                            {
                                OFFSET   8.364480   0.000000   3.252850
                                CHANNELS 3 Zrotation Xrotation Yrotation
                                JOINT LeftFinger11
                                {
                                    OFFSET   4.646930   0.000000   0.000000
                                    CHANNELS 3 Zrotation Xrotation Yrotation
                                    JOINT LeftFinger12
                                    {
                                        OFFSET   2.323460   0.000000   0.000000
                                        CHANNELS 3 Zrotation Xrotation Yrotation
                                        End Site
                                        {
                                            OFFSET   2.273050   0.000000   0.000000
                                        }
                                    }
                                }
                            }
                            JOINT LeftFinger2
                            {
                                OFFSET   8.364490   0.000015   1.078090
                                CHANNELS 3 Zrotation Xrotation Yrotation
                                JOINT LeftFinger21
                                {
                                    OFFSET   5.111620   0.000000   0.000000
                                    CHANNELS 3 Zrotation Xrotation Yrotation
                                    JOINT LeftFinger22
                                    {
                                        OFFSET   2.788160   0.000016   0.000000
                                        CHANNELS 3 Zrotation Xrotation Yrotation
                                        End Site
                                        {
                                            OFFSET   2.727660   0.000000   0.000000
                                        }
                                    }
                                }
                            }
                            JOINT LeftFinger3
                            {
                                OFFSET   7.899780   0.000017  -1.078090
                                CHANNELS 3 Zrotation Xrotation Yrotation
                                JOINT LeftFinger31
                                {
                                    OFFSET   4.646930   0.000000   0.000000
                                    CHANNELS 3 Zrotation Xrotation Yrotation
                                    JOINT LeftFinger32
                                    {
                                        OFFSET   2.323470   0.000000   0.000000
                                        CHANNELS 3 Zrotation Xrotation Yrotation
                                        End Site
                                        {
                                            OFFSET   2.273050   0.000000   0.000000
                                        }
                                    }
                                }
                            }
                            JOINT LeftFinger4
                            {
                                OFFSET   7.435090   0.000000  -3.252850
                                CHANNELS 3 Zrotation Xrotation Yrotation
                                JOINT LeftFinger41
                                {
                                    OFFSET   3.717550   0.000000   0.000000
                                    CHANNELS 3 Zrotation Xrotation Yrotation
                                    JOINT LeftFinger42
                                    {
                                        OFFSET   1.858770   0.000000   0.000000
                                        CHANNELS 3 Zrotation Xrotation Yrotation
                                        End Site
                                        {
                                            OFFSET   1.818440   0.000000   0.000000
                                        }
                                    }
                                }
                            }
                        }
                    }
                }
            }
            JOINT RightCollar
            {
                OFFSET  -3.911900  19.017000  -0.467063
                CHANNELS 3 Zrotation Xrotation Yrotation
                JOINT RightShoulder
                {
                    OFFSET -10.383700   0.000019   0.000000
                    CHANNELS 3 Zrotation Xrotation Yrotation
                    JOINT RightElbow
                    {
                        OFFSET -26.662100   0.001175   0.000102
                        CHANNELS 3 Zrotation Xrotation Yrotation
                        JOINT RightWrist
                        {
                            OFFSET -28.869000   0.000016  -0.000079
                            CHANNELS 3 Zrotation Xrotation Yrotation
                            JOINT RightFinger0
                            {
                                OFFSET  -2.044660  -2.323490   3.252850
                                CHANNELS 3 Zrotation Xrotation Yrotation
                                JOINT RightFinger01
                                {
                                    OFFSET  -3.088140   0.000000   0.000000
                                    CHANNELS 3 Zrotation Xrotation Yrotation
                                    JOINT RightFinger02
                                    {
                                        OFFSET  -2.639460   0.000000   0.000000
                                        CHANNELS 3 Zrotation Xrotation Yrotation
                                        End Site
                                        {
                                            OFFSET  -2.582190   0.000000   0.000000
                                        }
                                    }
                                }
                            }
                            JOINT RightFinger1
                            {
                                OFFSET  -8.364480   0.000000   3.252850
                                CHANNELS 3 Zrotation Xrotation Yrotation
                                JOINT RightFinger11
                                {
                                    OFFSET  -4.646930   0.000000   0.000000
                                    CHANNELS 3 Zrotation Xrotation Yrotation
                                    JOINT RightFinger12
                                    {
                                        OFFSET  -2.323470   0.000000   0.000000
                                        CHANNELS 3 Zrotation Xrotation Yrotation
                                        End Site
                                        {
                                            OFFSET  -2.273050   0.000000   0.000000
                                        }
                                    }
                                }
                            }
                            JOINT RightFinger2
                            {
                                OFFSET  -8.364480   0.000000   1.078090
                                CHANNELS 3 Zrotation Xrotation Yrotation
                                JOINT RightFinger21
                                {
                                    OFFSET  -5.111620   0.000000   0.000000
                                    CHANNELS 3 Zrotation Xrotation Yrotation
                                    JOINT RightFinger22
                                    {
                                        OFFSET  -2.788160   0.000000   0.000000
                                        CHANNELS 3 Zrotation Xrotation Yrotation
                                        End Site
                                        {
                                            OFFSET  -2.727660   0.000000   0.000000
                                        }
                                    }
                                }
                            }
                            JOINT RightFinger3
                            {
                                OFFSET  -7.899780   0.000000  -1.078090
                                CHANNELS 3 Zrotation Xrotation Yrotation
                                JOINT RightFinger31
                                {
                                    OFFSET  -4.646930   0.000000   0.000000
                                    CHANNELS 3 Zrotation Xrotation Yrotation
                                    JOINT RightFinger32
                                    {
                                        OFFSET  -2.323470   0.000000   0.000000
                                        CHANNELS 3 Zrotation Xrotation Yrotation
                                        End Site
                                        {
                                            OFFSET  -2.273050   0.000000   0.000000
                                        }
                                    }
                                }
                            }
                            JOINT RightFinger4
                            {
                                OFFSET  -7.435090   0.000000  -3.252850
                                CHANNELS 3 Zrotation Xrotation Yrotation
                                JOINT RightFinger41
                                {
                                    OFFSET  -3.717550   0.000000   0.000000
                                    CHANNELS 3 Zrotation Xrotation Yrotation
                                    JOINT RightFinger42
                                    {
                                        OFFSET  -1.858770   0.000000   0.000000
                                        CHANNELS 3 Zrotation Xrotation Yrotation
                                        End Site
                                        {
                                            OFFSET  -1.818440   0.000000   0.000000
                                        }
                                    }
                                }
                            }
                        }
                    }
                }
            }
        }
    }
    JOINT LeftHip
    {
        OFFSET   9.783040   0.000000   0.000000
        CHANNELS 3 Zrotation Xrotation Yrotation
        JOINT LeftKnee
        {
            OFFSET   0.000032 -41.789100  -0.002222
            CHANNELS 3 Zrotation Xrotation Yrotation
            JOINT LeftAnkle
            {
                OFFSET   0.000087 -41.133200  -0.000135
                CHANNELS 3 Zrotation Xrotation Yrotation
                JOINT LeftToe
                {
                    OFFSET   0.000000  -6.358960  14.674500
                    CHANNELS 3 Zrotation Xrotation Yrotation
                    End Site
                    {
                        OFFSET   0.000000   0.000000   3.913200
                    }
                }
            }
        }
    }
    JOINT RightHip
    {
        OFFSET  -9.783040   0.000000   0.000000
        CHANNELS 3 Zrotation Xrotation Yrotation
        JOINT RightKnee
        {
            OFFSET   0.000047 -41.789100  -0.000896
            CHANNELS 3 Zrotation Xrotation Yrotation
            JOINT RightAnkle
            {
                OFFSET  -0.000117 -41.133300  -0.000248
                CHANNELS 3 Zrotation Xrotation Yrotation
                JOINT RightToe
                {
                    OFFSET   0.000000  -6.358970  14.674500
                    CHANNELS 3 Zrotation Xrotation Yrotation
                    End Site
                    {
                        OFFSET   0.000000   0.000000   3.913200
                    }
                }
            }
        }
    }
}
MOTION
Frames: 4
Frame Time:   0.016667
  0.281870  89.080600  -0.739129 -10.808300 -12.532800 -27.938400   4.633860  11.948000  -5.846770  10.865400  23.296500 -13.105600   0.696730  -3.392900   0.033280   1.157240  -6.877810  18.129700  -8.233650  -8.492910 -14.660400 -45.670500  31.956900 -83.794600   1.267550 -27.422200 -20.232700   1.909970 -59.966700  -7.265980  38.134500  22.039500 -59.091300 -23.196300   0.001506   0.000781  -6.598150  -0.005471  -0.005087 -26.059600   5.641930 -11.369100 -21.781400   0.000000  -0.004124 -15.247000  -0.000459   0.004888 -25.463700   3.460160  -7.223430 -25.682200   0.000739  -0.002962 -17.104300  -0.001749  -0.002895 -26.997400  -3.607330   7.040210 -27.912800   0.007895  -0.003023 -18.590000   0.005267  -0.003611 -29.554400  -6.041560  10.510700 -45.164600   0.004078  -0.003832 -30.079600   0.006779  -0.005065   4.752160 -15.060300   9.358720  52.565900  -3.921560  55.661600 -14.841400 -16.398400  23.008200 -12.567000 -58.651700  27.644500 -52.404400  36.635500  72.310600  -0.079327  -0.002822   0.000031  -5.039690  -0.001931  -0.003646  20.076300   5.644600  15.067300  17.038400   0.000887   0.000107  11.927000   0.001725  -0.001375  19.260200   4.947160  13.863500  19.862000   0.000269  -0.005004  13.228200  -0.002200  -0.003048  17.562600   4.295680  13.314700  18.064300   0.000445  -0.001187  12.030800   0.000978  -0.005991  18.496800   2.303650   6.859820  27.952200   0.001155  -0.002894  18.616200  -0.000606  -0.001226   4.601040  21.521800   7.656090   0.636423   2.745610  23.900600  -6.328070  -6.950820   7.510330  -0.000000   0.000000  -0.000000   4.089650   9.714810  -1.156190  -2.035810   9.395750   4.711800   0.993895  -3.492700  14.596400  -0.000000   0.000000   0.000000
  0.230164  89.067000  -0.716616 -10.774600 -12.411100 -28.015700   4.606290  11.899700  -5.830250  10.797600  23.205600 -13.058200   0.651004  -3.633730   0.032933   1.084170  -7.365890  19.232800  -8.119870  -8.446280 -14.562300 -45.591500  31.738000 -84.270200   1.350760 -27.458400 -19.901100   2.132720 -59.974200  -7.014580  38.139700  21.972200 -59.049800 -23.153100   0.001518   0.000779  -6.576540  -0.005481  -0.005088 -26.030800   5.637620 -11.372700 -21.757600   0.000000  -0.004122 -15.230300  -0.000455   0.004888 -25.461300   3.450060  -7.203280 -25.678500   0.000916  -0.002862 -17.101900  -0.001750  -0.002720 -26.987900  -3.610970   7.050070 -27.873000   0.007817  -0.002998 -18.563400   0.005263  -0.003612 -29.521300  -6.012240  10.479000 -45.109600   0.004074  -0.003835 -30.043000   0.006786  -0.005067   4.843900 -15.049100   9.399280  52.362100  -4.068680  55.957800 -14.570400 -16.311600  22.416400 -12.585200 -58.741200  27.609500 -52.343900  36.603000  72.286300  -0.104911  -0.002918  -0.000000  -5.052480  -0.001957  -0.003606  20.093600   5.651700  15.067000  17.052200   0.001005   0.000106  11.936600   0.001892  -0.001376  19.258600   4.946910  13.864000  19.860400   0.000477  -0.005001  13.227100  -0.002114  -0.003052  17.517800   4.289860  13.332300  18.019400   0.000513  -0.001188  12.000900   0.001064  -0.005984  18.495500   2.303400   6.860420  27.950100   0.001247  -0.002891  18.614800  -0.000490  -0.001248   4.609540  21.457300   7.633590   0.652703   2.735750  23.976000  -6.357610  -6.963200   7.550910   0.000000   0.000000  -0.000000   4.087480   9.652330  -1.193100  -2.009200   9.315830   4.849070   0.967267  -3.462730  14.594000  -0.000000   0.000000  -0.000000
  0.172698  89.052800  -0.696356 -10.746500 -12.302300 -28.062200   4.574350  11.848100  -5.807550  10.717700  23.109500 -12.996000   0.614825  -3.836690   0.032574   1.025430  -7.776730  20.064800  -8.023380  -8.399580 -14.461300 -45.470100  31.566800 -84.725200   1.419470 -27.453800 -19.598700   2.487890 -60.097400  -6.595230  38.112400  21.926600 -59.134400 -23.164300   0.001521   0.000778  -6.582150  -0.005469  -0.005090 -26.064700   5.655750 -11.388000 -21.786900   0.000000  -0.004123 -15.250800  -0.000466   0.004888 -25.508900   3.468860  -7.221540 -25.727800   0.001091  -0.002762 -17.134700  -0.001746  -0.002538 -27.001300  -3.603160   7.031020 -27.927800   0.007730  -0.002979 -18.599900   0.005267  -0.003611 -29.568000  -5.990970  10.424700 -45.170600   0.004081  -0.003832 -30.083700   0.006788  -0.005065   4.937810 -15.013900   9.450680  52.091800  -4.127790  56.086900 -14.426000 -16.275800  22.008500 -12.680500 -58.850500  27.470500 -52.379200  36.694800  72.490500  -0.087132  -0.003010   0.000000  -5.043580  -0.001970  -0.003625  20.131500   5.656470  15.053200  17.083300   0.001119   0.000111  11.958400   0.002057  -0.001374  19.279200   4.950020  13.857100  19.881100   0.000701  -0.005005  13.240800  -0.002027  -0.003046  17.488000   4.285990  13.344000  17.989600   0.000573  -0.001179  11.981100   0.001141  -0.005987  18.492600   2.303100   6.861720  27.945700   0.001329  -0.002891  18.611800  -0.000390  -0.001254   4.637040  21.397900   7.594920   0.667470   2.734090  24.050500  -6.390100  -6.977570   7.565130  -0.000000   0.000000  -0.000000   4.088510   9.605530  -1.247570  -1.971320   9.238970   4.944180   0.941016  -3.443330  14.602500   0.000000   0.000000   0.000000
  0.111275  89.038700  -0.677290 -10.719400 -12.208600 -28.073600   4.538370  11.796100  -5.781400  10.628900  23.013200 -12.925900   0.585036  -4.012220   0.032177   0.974378  -8.133050  20.698600  -7.927550  -8.348680 -14.344900 -45.328300  31.445100 -85.156100   1.473980 -27.435100 -19.359400   2.850730 -60.264200  -6.156240  38.013700  21.879700 -59.256700 -23.194000   0.001522   0.000777  -6.597010  -0.005456  -0.005092 -26.123300   5.673970 -11.398800 -21.837200   0.000000  -0.004124 -15.286100  -0.000477   0.004888 -25.588900   3.487660  -7.239810 -25.809600   0.001270  -0.002664 -17.189200  -0.001743  -0.002355 -27.026400  -3.590610   6.999340 -28.031300   0.007638  -0.002963 -18.668800   0.005271  -0.003610 -29.653800  -5.982100  10.373300 -45.296000   0.004088  -0.003829 -30.167200   0.006788  -0.005062   5.024890 -14.957900   9.497830  51.806400  -4.151250  56.107300 -14.356200 -16.259600  21.741200 -12.813100 -58.941900  27.269300 -52.389400  36.785700  72.695600  -0.069353  -0.003099  -0.000000  -5.034670  -0.001982  -0.003647  20.170600   5.664720  15.040200  17.115600   0.001237   0.000116  11.980900   0.002221  -0.001373  19.315300   4.955460  13.844900  19.917300   0.000938  -0.005012  13.264900  -0.001943  -0.003041  17.477500   4.284600  13.348100  17.979100   0.000633  -0.001171  11.974100   0.001217  -0.005990  18.491000   2.302750   6.862450  27.943200   0.001401  -0.002890  18.610200  -0.000285  -0.001255   4.674350  21.348300   7.550020   0.680992   2.732440  24.124100  -6.424080  -6.986190   7.567260   0.000000   0.000000  -0.000000   4.094530   9.573170  -1.309470  -1.931520   9.164470   5.021870   0.911238  -3.428310  14.611000   0.000000   0.000000  -0.000000
